<svg width="226" height="259" viewBox="0 0 226 259" fill="none" xmlns="http://www.w3.org/2000/svg">
<path d="M17.0433 36.981C16.7006 30.9362 21.3914 25.7619 27.5204 25.4239L163.466 17.9276C169.595 17.5896 174.841 22.216 175.184 28.2608L186.352 225.273C186.695 231.318 182.004 236.492 175.875 236.83L39.9298 244.326C33.8008 244.664 28.5544 240.038 28.2118 233.993L17.0433 36.981Z" fill="#D6D6D6"/>
<path d="M64.6947 14.7981C65.164 8.69062 70.5645 4.1147 76.7571 4.57752L214.112 14.8433C220.305 15.3061 224.944 20.6324 224.475 26.7399L209.181 225.795C208.711 231.903 203.311 236.479 197.118 236.016L59.7632 225.75C53.5706 225.287 48.931 219.961 49.4003 213.854L64.6947 14.7981Z" fill="#FFFAF8"/>
<path d="M77.7547 28.2862C78.1653 22.9421 82.6376 18.9192 87.7437 19.3009L201.001 27.7656C206.108 28.1472 209.914 32.7888 209.504 38.1329L196.121 212.306C195.71 217.651 191.238 221.673 186.132 221.292L72.8741 212.827C67.7679 212.445 63.9614 207.804 64.372 202.46L77.7547 28.2862Z" fill="#C4C4C4"/>
<path d="M77.7547 28.2862C78.1653 22.9421 82.6376 18.9192 87.7437 19.3009L201.001 27.7656C206.108 28.1472 209.914 32.7888 209.504 38.1329L196.121 212.306C195.71 217.651 191.238 221.673 186.132 221.292L72.8741 212.827C67.7679 212.445 63.9614 207.804 64.372 202.46L77.7547 28.2862Z" fill="url(#paint0_linear_964_2466)"/>
<path d="M77.7547 28.2862C78.1653 22.9421 82.6376 18.9192 87.7437 19.3009L201.001 27.7656C206.108 28.1472 209.914 32.7888 209.504 38.1329L196.121 212.306C195.71 217.651 191.238 221.673 186.132 221.292L72.8741 212.827C67.7679 212.445 63.9614 207.804 64.372 202.46L77.7547 28.2862Z" fill="url(#paint1_linear_964_2466)"/>
<path d="M138.391 172.951C151.459 163.19 172.792 175.522 176.915 121.86C177.108 119.356 177.07 116.888 176.82 114.475C145.097 101.775 108.695 105.079 94.4589 108.319C93.8428 110.668 93.4284 113.102 93.236 115.606C89.1129 169.268 112.086 160.248 123.514 171.839C126.893 175.266 129.505 177.341 130.566 177.421C131.627 177.5 134.527 175.836 138.391 172.951Z" fill="white"/>
<path fill-rule="evenodd" clip-rule="evenodd" d="M165.226 120.815C168.035 121.009 170.152 123.411 169.956 126.182C169.784 128.6 169.216 136.041 166.514 142.625C165.457 145.199 162.485 146.441 159.876 145.399C157.266 144.357 156.007 141.426 157.063 138.852C159.101 133.887 159.615 127.876 159.785 125.48C159.981 122.71 162.417 120.621 165.226 120.815Z" fill="#C4C4C4"/>
<path fill-rule="evenodd" clip-rule="evenodd" d="M165.226 120.815C168.035 121.009 170.152 123.411 169.956 126.182C169.784 128.6 169.216 136.041 166.514 142.625C165.457 145.199 162.485 146.441 159.876 145.399C157.266 144.357 156.007 141.426 157.063 138.852C159.101 133.887 159.615 127.876 159.785 125.48C159.981 122.71 162.417 120.621 165.226 120.815Z" fill="url(#paint2_linear_964_2466)"/>
<path fill-rule="evenodd" clip-rule="evenodd" d="M165.226 120.815C168.035 121.009 170.152 123.411 169.956 126.182C169.784 128.6 169.216 136.041 166.514 142.625C165.457 145.199 162.485 146.441 159.876 145.399C157.266 144.357 156.007 141.426 157.063 138.852C159.101 133.887 159.615 127.876 159.785 125.48C159.981 122.71 162.417 120.621 165.226 120.815Z" fill="url(#paint3_linear_964_2466)"/>
<ellipse cx="5.1886" cy="5.11815" rx="5.1886" ry="5.11815" transform="matrix(0.997137 0.0756162 -0.0777247 0.996975 149.876 146.307)" fill="#C4C4C4"/>
<ellipse cx="5.1886" cy="5.11815" rx="5.1886" ry="5.11815" transform="matrix(0.997137 0.0756162 -0.0777247 0.996975 149.876 146.307)" fill="url(#paint4_linear_964_2466)"/>
<ellipse cx="5.1886" cy="5.11815" rx="5.1886" ry="5.11815" transform="matrix(0.997137 0.0756162 -0.0777247 0.996975 149.876 146.307)" fill="url(#paint5_linear_964_2466)"/>
<path fill-rule="evenodd" clip-rule="evenodd" d="M138.844 78.0217C149.308 74.5351 171.612 71.086 180.922 84.1322C190.377 97.3816 183.499 107.381 178.879 110.725C173.805 108.207 158.36 102.787 136.99 101.139C115.689 99.6182 99.6567 102.67 94.2692 104.401C90.2121 100.409 84.9408 89.501 96.3125 77.8081C107.51 66.2942 129.033 73.0196 138.844 78.0217Z" fill="white"/>
<path d="M139.805 80.8775C139.376 81.5544 138.365 81.4789 138.044 80.7459L132.575 68.2574C132.273 67.5669 132.816 66.8016 133.568 66.8578L146.352 67.8133C147.104 67.8695 147.524 68.7068 147.12 69.3445L139.805 80.8775Z" fill="white"/>
<path fill-rule="evenodd" clip-rule="evenodd" d="M134.74 96.3535C119.587 93.0503 103.821 96.1665 97.8927 98.1227C97.209 98.3484 96.4693 97.9846 96.2406 97.3103C96.0118 96.636 96.3806 95.9065 97.0643 95.6809C103.289 93.6266 119.554 90.406 135.303 93.8393C136.007 93.9927 136.452 94.68 136.296 95.3743C136.141 96.0686 135.444 96.507 134.74 96.3535Z" fill="#C4C4C4"/>
<path fill-rule="evenodd" clip-rule="evenodd" d="M134.74 96.3535C119.587 93.0503 103.821 96.1665 97.8927 98.1227C97.209 98.3484 96.4693 97.9846 96.2406 97.3103C96.0118 96.636 96.3806 95.9065 97.0643 95.6809C103.289 93.6266 119.554 90.406 135.303 93.8393C136.007 93.9927 136.452 94.68 136.296 95.3743C136.141 96.0686 135.444 96.507 134.74 96.3535Z" fill="url(#paint6_linear_964_2466)"/>
<path fill-rule="evenodd" clip-rule="evenodd" d="M134.74 96.3535C119.587 93.0503 103.821 96.1665 97.8927 98.1227C97.209 98.3484 96.4693 97.9846 96.2406 97.3103C96.0118 96.636 96.3806 95.9065 97.0643 95.6809C103.289 93.6266 119.554 90.406 135.303 93.8393C136.007 93.9927 136.452 94.68 136.296 95.3743C136.141 96.0686 135.444 96.507 134.74 96.3535Z" fill="url(#paint7_linear_964_2466)"/>
<path fill-rule="evenodd" clip-rule="evenodd" d="M128.646 90.5434C117.289 88.3776 105.569 90.7357 101.19 92.17C100.506 92.3941 99.7667 92.0287 99.5395 91.3539C99.3123 90.6791 99.6827 89.9504 100.367 89.7263C105.032 88.1984 117.221 85.7419 129.142 88.0153C129.85 88.1503 130.313 88.8257 130.176 89.5238C130.039 90.2219 129.354 90.6784 128.646 90.5434Z" fill="#C4C4C4"/>
<path fill-rule="evenodd" clip-rule="evenodd" d="M128.646 90.5434C117.289 88.3776 105.569 90.7357 101.19 92.17C100.506 92.3941 99.7667 92.0287 99.5395 91.3539C99.3123 90.6791 99.6827 89.9504 100.367 89.7263C105.032 88.1984 117.221 85.7419 129.142 88.0153C129.85 88.1503 130.313 88.8257 130.176 89.5238C130.039 90.2219 129.354 90.6784 128.646 90.5434Z" fill="url(#paint8_linear_964_2466)"/>
<path fill-rule="evenodd" clip-rule="evenodd" d="M128.646 90.5434C117.289 88.3776 105.569 90.7357 101.19 92.17C100.506 92.3941 99.7667 92.0287 99.5395 91.3539C99.3123 90.6791 99.6827 89.9504 100.367 89.7263C105.032 88.1984 117.221 85.7419 129.142 88.0153C129.85 88.1503 130.313 88.8257 130.176 89.5238C130.039 90.2219 129.354 90.6784 128.646 90.5434Z" fill="url(#paint9_linear_964_2466)"/>
<path fill-rule="evenodd" clip-rule="evenodd" d="M122.68 84.6914C114.774 83.1835 106.598 84.828 103.559 85.8232C102.875 86.0473 102.136 85.6819 101.909 85.0071C101.682 84.3323 102.052 83.6036 102.736 83.3795C106.061 82.2906 114.705 80.5479 123.176 82.1632C123.884 82.2982 124.347 82.9736 124.21 83.6717C124.073 84.3699 123.388 84.8264 122.68 84.6914Z" fill="#C4C4C4"/>
<path fill-rule="evenodd" clip-rule="evenodd" d="M122.68 84.6914C114.774 83.1835 106.598 84.828 103.559 85.8232C102.875 86.0473 102.136 85.6819 101.909 85.0071C101.682 84.3323 102.052 83.6036 102.736 83.3795C106.061 82.2906 114.705 80.5479 123.176 82.1632C123.884 82.2982 124.347 82.9736 124.21 83.6717C124.073 84.3699 123.388 84.8264 122.68 84.6914Z" fill="url(#paint10_linear_964_2466)"/>
<path fill-rule="evenodd" clip-rule="evenodd" d="M122.68 84.6914C114.774 83.1835 106.598 84.828 103.559 85.8232C102.875 86.0473 102.136 85.6819 101.909 85.0071C101.682 84.3323 102.052 83.6036 102.736 83.3795C106.061 82.2906 114.705 80.5479 123.176 82.1632C123.884 82.2982 124.347 82.9736 124.21 83.6717C124.073 84.3699 123.388 84.8264 122.68 84.6914Z" fill="url(#paint11_linear_964_2466)"/>
<defs>
<linearGradient id="paint0_linear_964_2466" x1="78.4982" y1="18.6099" x2="242.248" y2="161.393" gradientUnits="userSpaceOnUse">
<stop stop-color="#E8EFF4"/>
<stop offset="1" stop-color="#E6ECF0"/>
</linearGradient>
<linearGradient id="paint1_linear_964_2466" x1="188.697" y1="223.886" x2="41.9307" y2="63.2333" gradientUnits="userSpaceOnUse">
<stop stop-color="#212426"/>
<stop offset="0.579482" stop-color="#34383A"/>
<stop offset="1" stop-color="#616567"/>
</linearGradient>
<linearGradient id="paint2_linear_964_2466" x1="158.124" y1="120.325" x2="176.873" y2="132.077" gradientUnits="userSpaceOnUse">
<stop stop-color="#E8EFF4"/>
<stop offset="1" stop-color="#E6ECF0"/>
</linearGradient>
<linearGradient id="paint3_linear_964_2466" x1="167.91" y1="146.513" x2="149.812" y2="132.423" gradientUnits="userSpaceOnUse">
<stop stop-color="#212426"/>
<stop offset="0.579482" stop-color="#34383A"/>
<stop offset="1" stop-color="#616567"/>
</linearGradient>
<linearGradient id="paint4_linear_964_2466" x1="0" y1="0" x2="9.5342" y2="10.5981" gradientUnits="userSpaceOnUse">
<stop stop-color="#E8EFF4"/>
<stop offset="1" stop-color="#E6ECF0"/>
</linearGradient>
<linearGradient id="paint5_linear_964_2466" x1="9.86546" y1="10.3627" x2="1.93723" y2="-0.744672" gradientUnits="userSpaceOnUse">
<stop stop-color="#212426"/>
<stop offset="0.579482" stop-color="#34383A"/>
<stop offset="1" stop-color="#616567"/>
</linearGradient>
<linearGradient id="paint6_linear_964_2466" x1="96.6738" y1="90.3318" x2="98.1242" y2="104.601" gradientUnits="userSpaceOnUse">
<stop stop-color="#E8EFF4"/>
<stop offset="1" stop-color="#E6ECF0"/>
</linearGradient>
<linearGradient id="paint7_linear_964_2466" x1="133.903" y1="101.012" x2="133.077" y2="88.4249" gradientUnits="userSpaceOnUse">
<stop stop-color="#212426"/>
<stop offset="0.579482" stop-color="#34383A"/>
<stop offset="1" stop-color="#616567"/>
</linearGradient>
<linearGradient id="paint8_linear_964_2466" x1="99.7624" y1="85.9167" x2="101.231" y2="97.3362" gradientUnits="userSpaceOnUse">
<stop stop-color="#E8EFF4"/>
<stop offset="1" stop-color="#E6ECF0"/>
</linearGradient>
<linearGradient id="paint9_linear_964_2466" x1="128.424" y1="93.8758" x2="127.509" y2="83.7862" gradientUnits="userSpaceOnUse">
<stop stop-color="#212426"/>
<stop offset="0.579482" stop-color="#34383A"/>
<stop offset="1" stop-color="#616567"/>
</linearGradient>
<linearGradient id="paint10_linear_964_2466" x1="102.069" y1="80.6587" x2="103.499" y2="90.0105" gradientUnits="userSpaceOnUse">
<stop stop-color="#E8EFF4"/>
<stop offset="1" stop-color="#E6ECF0"/>
</linearGradient>
<linearGradient id="paint11_linear_964_2466" x1="122.923" y1="87.0713" x2="122.011" y2="78.7825" gradientUnits="userSpaceOnUse">
<stop stop-color="#212426"/>
<stop offset="0.579482" stop-color="#34383A"/>
<stop offset="1" stop-color="#616567"/>
</linearGradient>
</defs>
</svg>
